<svg xmlns="http://www.w3.org/2000/svg" width="55.5" height="62.91" viewBox="0 0 55.5 62.91">
  <defs>
    <style>
      .cls-1 {
        fill-rule: evenodd;
      }
    </style>
  </defs>
  <path class="cls-1" d="M857.139,1256.83a3.114,3.114,0,0,0,.17-2.69,0.807,0.807,0,0,0-.089-0.17l-1.837-2.76a0.89,0.89,0,0,0-.742-0.4h-0.073a0.891,0.891,0,0,0-.742.4l-1.837,2.76a0.8,0.8,0,0,0-.088.17,3.117,3.117,0,0,0,.169,2.69,2.118,2.118,0,0,0,.624.6h-6.112a2.1,2.1,0,0,0,.623-0.6,3.109,3.109,0,0,0,.169-2.69,0.76,0.76,0,0,0-.088-0.17l-1.837-2.76a0.89,0.89,0,0,0-.742-0.4h-0.073a0.891,0.891,0,0,0-.742.4l-1.837,2.76a0.8,0.8,0,0,0-.088.17,3.115,3.115,0,0,0,.169,2.69,2.118,2.118,0,0,0,.624.6h-6.112a2.114,2.114,0,0,0,.623-0.6,3.113,3.113,0,0,0,.169-2.69,0.8,0.8,0,0,0-.088-0.17l-1.837-2.76a0.89,0.89,0,0,0-.742-0.4H834.7a0.891,0.891,0,0,0-.742.4l-1.837,2.76a0.8,0.8,0,0,0-.088.17,3.113,3.113,0,0,0,.169,2.69,2.118,2.118,0,0,0,.624.6h-3.9V1261h31.5v-3.57h-3.9A2.1,2.1,0,0,0,857.139,1256.83Zm-11.406-1a1.224,1.224,0,0,1-.952.28h-0.22a1.188,1.188,0,0,1-.951-0.28,1.351,1.351,0,0,1-.008-0.97l1.069-1.6,1.069,1.6A1.379,1.379,0,0,1,845.733,1255.83Zm-9.934,0a1.226,1.226,0,0,1-.952.28h-0.22a1.187,1.187,0,0,1-.951-0.28,1.351,1.351,0,0,1-.008-0.97l1.069-1.6,1.069,1.6A1.379,1.379,0,0,1,835.8,1255.83Zm19.867,0a1.19,1.19,0,0,1-.951.28H854.5a1.188,1.188,0,0,1-.951-0.28,1.351,1.351,0,0,1-.008-0.97l1.069-1.6,1.068,1.6A1.357,1.357,0,0,1,855.666,1255.83Zm15.758-30.95a2.852,2.852,0,0,0-.312-0.66,4.88,4.88,0,0,0-2.494-2.53,4.806,4.806,0,0,0-1.883-.38,5.276,5.276,0,0,0-1.857.34l-1.247.36a6.73,6.73,0,0,0-1.561-3.41,10.272,10.272,0,0,0-5.914-3.1l-3.6-.74a5.459,5.459,0,0,0,.249-4.62,4.623,4.623,0,0,0-3.426-2.57l-4.942-1.02a5.654,5.654,0,0,0-1.141-.12,4.479,4.479,0,0,0-3.022,1.12,5.449,5.449,0,0,0-1.6,4.34l-3.6-.75a13.878,13.878,0,0,0-2.839-.31c-4.151,0-6.026,2.26-6.775,3.61a0.893,0.893,0,0,0,.6,1.31l30.854,6.38H826.073l-1.679-.48a5.276,5.276,0,0,0-1.857-.34,4.8,4.8,0,0,0-1.882.38,4.876,4.876,0,0,0-2.494,2.53,2.815,2.815,0,0,0-.313.66,5,5,0,0,0,.329,4.2,5.073,5.073,0,0,0,3.017,2.27l4,1.4v7.97a8.3,8.3,0,0,0,8.72,8.4h21.453a8.3,8.3,0,0,0,8.72-8.4v-7.97l4-1.4a5.076,5.076,0,0,0,3.017-2.27A5.009,5.009,0,0,0,871.424,1224.88Zm-3.838,4.75a0.167,0.167,0,0,1-.066.02l-3.437,1.21v-2.31l2.805-.98a0.646,0.646,0,0,0,.081-0.03,0.821,0.821,0,0,0,.155-0.04,0.79,0.79,0,0,0,.13-0.06,0.886,0.886,0,0,0,.416-1.18,1.018,1.018,0,0,1-.05-0.12,2.355,2.355,0,0,0-.181-0.42,0.9,0.9,0,0,0-.923-0.43l-0.144.03a1.149,1.149,0,0,0-.172.07h-0.006c-0.024.01-.052,0.01-0.087,0.02l-2.024.58v-2.26l1.322-.38a0.209,0.209,0,0,0,.076-0.02,3.494,3.494,0,0,1,1.254-.24,2.909,2.909,0,0,1,1.175.24,3.133,3.133,0,0,1,1.605,1.68,0.675,0.675,0,0,0,.078.14,1.169,1.169,0,0,1,.136.28,3.293,3.293,0,0,1-.173,2.76A3.255,3.255,0,0,1,867.586,1229.63Zm-12.223,17.71H833.91a6.575,6.575,0,0,1-6.938-6.62v-16.81H862.3v16.81A6.574,6.574,0,0,1,855.363,1247.34Zm-33.676-17.71a3.076,3.076,0,0,1-2.143-4.2,1.169,1.169,0,0,1,.136-0.28,0.724,0.724,0,0,0,.078-0.14,3.133,3.133,0,0,1,1.605-1.68,2.9,2.9,0,0,1,1.174-.24,3.484,3.484,0,0,1,1.254.24,0.214,0.214,0,0,0,.077.02l1.322,0.38v2.26l-2.024-.58c-0.035-.01-0.063-0.01-0.088-0.02h0a1.038,1.038,0,0,0-.169-0.07l-0.15-.03a0.9,0.9,0,0,0-.922.43,2.79,2.79,0,0,0-.179.41,0.783,0.783,0,0,1-.051.13,0.9,0.9,0,0,0,.305,1.13l0.017,0.01a1.17,1.17,0,0,0,.261.12l0.228,0.06,2.777,0.97v2.31l-3.437-1.21A0.167,0.167,0,0,1,821.687,1229.63Zm10.557-17.02a12.527,12.527,0,0,1,2.478.28l4.161,0.86,0.918,0.19,0.918,0.19,2.466,0.51,0.907,0.19,0.908,0.18,0.516,0.11,0.908,0.19,0.908,0.19,2.465,0.51,0.919,0.19,0.918,0.19,4.161,0.86c3.789,0.78,5.263,2.55,5.816,4.03l-33.832-7A5.866,5.866,0,0,1,832.244,1212.61Zm8.219-.75a3.775,3.775,0,0,1,1-2.98,2.688,2.688,0,0,1,1.832-.67,3.594,3.594,0,0,1,.78.09l4.943,1.02a2.892,2.892,0,0,1,2.168,1.57,3.76,3.76,0,0,1-.259,3.13l-0.2.36-2.538-.53,0.464-.88a0.893,0.893,0,0,0-.609-1.29l-4-.83a0.894,0.894,0,0,0-.769.2,0.908,0.908,0,0,0-.3.74l0.075,1-2.538-.53Zm4.375,0.98,1.69,0.35-0.152.29-1.514-.32Zm-14.293,28.03v-15.14h-1.783v15.24a0.819,0.819,0,0,0,.018.17c0.034,0.17.873,4.18,4.149,4.36l0.049-.89,0.05-.89a1.451,1.451,0,0,1-.211-0.02C831.254,1243.44,830.65,1241.29,830.545,1240.87Zm-5.7-20.27h0.033a0.89,0.89,0,0,0,.231-1.74,10.631,10.631,0,0,1-4.311-3.03,0.249,0.249,0,0,1-.04-0.05,2.737,2.737,0,0,1-.8-2.23c0.254-2.04,2.779-3.79,2.8-3.8a0.9,0.9,0,0,0,.24-1.24,0.883,0.883,0,0,0-1.235-.24c-4.189,2.8-5.97,5.26-5.443,7.53,0.855,3.68,7.631,4.69,8.4,4.8h0.119Zm-6.669-6.33a4.668,4.668,0,0,0,1.227,2.67,0.778,0.778,0,0,0,.08.1,2.874,2.874,0,0,1-1.421-1.64A1.948,1.948,0,0,1,818.18,1214.27Zm2.271-13.5c4.044,0.61,6.4,1.79,6.8,3.42,0.649,2.59-3.378,6.27-4.985,7.47v0.01a0.881,0.881,0,0,0-.246,1.14,0.9,0.9,0,0,0,.78.46,0.93,0.93,0,0,0,.326-0.06c5.285-2.08,8.76-5.76,8.852-9.38a4.851,4.851,0,0,0-3.057-4.67,11.168,11.168,0,0,0-4.647-1.07,8.143,8.143,0,0,0-4.18,1.05,0.882,0.882,0,0,0-.385.93A0.893,0.893,0,0,0,820.451,1200.77Zm7.739,0.01a3.075,3.075,0,0,1,2.011,3,6.6,6.6,0,0,1-2.093,4.19,5.586,5.586,0,0,0,.877-4.21c-0.432-1.73-1.9-3.01-4.468-3.88A9.707,9.707,0,0,1,828.19,1200.78Z" transform="translate(-816.25 -1198.09)"/>
</svg>
