<svg xmlns="http://www.w3.org/2000/svg" width="55.68" height="49.5" viewBox="0 0 55.68 49.5">
  <defs>
    <style>
      .cls-1 {
        fill-rule: evenodd;
      }
    </style>
  </defs>
  <path class="cls-1" d="M1133.08,1228.46h-33.16a7.05,7.05,0,0,0-7.04,7.04v11.58a7.05,7.05,0,0,0,7.04,7.04h33.16a7.05,7.05,0,0,0,7.04-7.04V1235.5A7.05,7.05,0,0,0,1133.08,1228.46Zm5.35,18.62a5.356,5.356,0,0,1-5.35,5.35h-33.16a5.356,5.356,0,0,1-5.35-5.35V1235.5a5.356,5.356,0,0,1,5.35-5.35h33.16a5.356,5.356,0,0,1,5.35,5.35v11.58Zm-2.28-38.57h-39.3a8.209,8.209,0,0,0-8.2,8.19v33.11a8.2,8.2,0,0,0,8.2,8.19h39.3a8.2,8.2,0,0,0,8.2-8.19V1216.7A8.209,8.209,0,0,0,1136.15,1208.51Zm6.51,41.3a6.515,6.515,0,0,1-6.51,6.5h-39.3a6.515,6.515,0,0,1-6.51-6.5V1216.7a6.515,6.515,0,0,1,6.51-6.5h39.3a6.515,6.515,0,0,1,6.51,6.5v33.11Zm-38.47-23h24.62l0.04-.81c0.01-.21.01-0.4,0.01-0.59a12.36,12.36,0,1,0-24.72,0c0,0.19,0,.38.01,0.59Zm5.54-9.64,1.19,1.87,0.71-.46,0.71-.46-1.23-1.92a10.7,10.7,0,0,1,4.54-1.42v2.33h0.79l-1.25,6.14a3.8,3.8,0,0,0-2.09,1.87h-7.27a10.41,10.41,0,0,1,.61-3.26l1.78,0.92,0.39-.75,0.38-.75-1.86-.96A10.54,10.54,0,0,1,1109.73,1217.17Zm10.93,0.95,1.42,0.92,1.19-1.87a10.54,10.54,0,0,1,2.6,3.15l-1.86.96,0.38,0.75,0.39,0.75,1.78-.92a10.41,10.41,0,0,1,.61,3.26h-7.27a3.84,3.84,0,0,0-2.12-1.88l-1.3-6.13h0.87v-2.33a10.7,10.7,0,0,1,4.54,1.42Zm0.63,20.67h-1.83l-1.8,2.13a3.2,3.2,0,0,0-.22.27v-5.18h-1.45v9.12h1.45v-2.36l0.35-.39,1.97,2.75h1.79l-2.75-3.69Zm4.64,0.57a2.234,2.234,0,0,0-1.72-.7,3.057,3.057,0,0,0-2.88,3.35,2.861,2.861,0,0,0,2.73,3.09,2.408,2.408,0,0,0,1.73-.67v0.15a1.605,1.605,0,0,1-1.73,1.89,3.058,3.058,0,0,1-1.65-.44l-0.2-.12-0.4,1.19,0.12,0.07a3.965,3.965,0,0,0,2.09.53,3.331,3.331,0,0,0,2.29-.76,3.6,3.6,0,0,0,.92-2.86v-3.46c0-.71.02-1.18,0.04-1.63l0.02-.2h-1.33Zm-0.15,3.04a1.669,1.669,0,0,1-.08.52,1.386,1.386,0,0,1-1.32.98,1.7,1.7,0,0,1-1.57-1.95c0-1.24.63-2.07,1.58-2.07a1.4,1.4,0,0,1,1.34,1.02,1.58,1.58,0,0,1,.05.43v1.07Zm-14.85-5.85h-2.21v6.32h-3.01l4.11,4.29,4.11-4.29h-3v-6.32Z" transform="translate(-1088.66 -1208.5)"/>
</svg>
