<svg xmlns="http://www.w3.org/2000/svg" width="71.594" height="62.91" viewBox="0 0 71.594 62.91">
  <defs>
    <style>
      .cls-1 {
        fill-rule: evenodd;
      }
    </style>
  </defs>
  <path class="cls-1" d="M572.321,1207.78a0.89,0.89,0,0,0-.758-1.01,6.824,6.824,0,0,0-3.314.31,6.744,6.744,0,0,0-2.741,1.89,0.89,0.89,0,0,0,.072,1.26,0.908,0.908,0,0,0,.6.23,0.888,0.888,0,0,0,.669-0.3,5.064,5.064,0,0,1,2.017-1.4,4.987,4.987,0,0,1,2.443-.22A0.9,0.9,0,0,0,572.321,1207.78Zm47.768,16.19-1.056-1.05a2.4,2.4,0,0,0-3.379,0l-4.453,4.44a5.5,5.5,0,0,0-1.414-.19h-0.7a6.174,6.174,0,0,0,2.549-2.36,1.807,1.807,0,0,0-.076-2.11c0.7-.95,2.047-3.13,1.7-5.37a4.928,4.928,0,0,0-2.518-3.49c-1.521-.93-3.268,1.21-3.927,2.02-0.564.69-1.066,1.41-1.4,1.9a0.863,0.863,0,0,0-.5.03c-0.124.04-.754,0.27-1.441,0.53v-1.98c0.094-.08.19-0.16,0.286-0.24a3.75,3.75,0,0,0,.29-0.27,5.222,5.222,0,0,0,1.307-6.28c-1.986-3.96-10.04-4.17-12.459-4.14l-1.084.01c-5.053-.13-13.463.39-14.72,5.21a46.067,46.067,0,0,0-4.562-7.73c-2.838-3.78-5.43-5.37-7.5-4.62s-3.021,3.63-2.764,8.35a40.145,40.145,0,0,0,.7,5.41h0a2.795,2.795,0,0,0-1.139,5.35l-2.215,6.43a0.874,0.874,0,0,0-.048.29v3.1a5.034,5.034,0,0,0-.779.15l-4.453-4.44a2.4,2.4,0,0,0-3.379,0l-1.056,1.05a2.394,2.394,0,0,0,0,3.38l4.933,4.92c-0.005.09-.007,0.18-0.007,0.27v6.56a2.389,2.389,0,0,0,2.389,2.38h0.949v0.4a0.894,0.894,0,0,0,.9.89h0.23v0.65a0.837,0.837,0,0,0,0,.1,4.952,4.952,0,0,1-1.2,2.02q-0.036.045-.066,0.09c-1.767,2.58-1.182,4.51-.3,7.43,0.057,0.19.117,0.38,0.178,0.59a42.012,42.012,0,0,0,2.265,5.68,2.929,2.929,0,0,0,2.643,1.67h9.337a2.931,2.931,0,0,0,2.644-1.67c0.433-.91.972-2.1,1.468-3.39h28.2a3.9,3.9,0,0,0,3.8-3.07l2.419-11.39h2.083a2.389,2.389,0,0,0,2.389-2.38v-6.56c0-.09,0-0.18-0.007-0.27l4.933-4.92A2.394,2.394,0,0,0,620.089,1223.97Zm-1.267,2.11-4.175,4.17a5.4,5.4,0,0,0-1.731-2.07l4-4a0.61,0.61,0,0,1,.845,0l1.056,1.06A0.592,0.592,0,0,1,618.822,1226.08Zm-5.451,13.02a0.6,0.6,0,0,1-.6.6H576.828v-0.35a2.347,2.347,0,0,0-.133-0.78,2.936,2.936,0,0,0-.125-0.3,2.414,2.414,0,0,0-1.253-1.14,2.336,2.336,0,0,0-.879-0.17H560.559a0.277,0.277,0,0,0-.09.01,2.674,2.674,0,0,0-.286.02,2.5,2.5,0,0,0-.61.19l-0.13.06-0.11.06a2.44,2.44,0,0,0-.763.73,2.373,2.373,0,0,0-.4,1.32v0.35h-0.949a0.6,0.6,0,0,1-.6-0.6v-6.56a3.577,3.577,0,0,1,1.747-3.07,3.871,3.871,0,0,1,.887-0.38c0.1-.03.208-0.05,0.315-0.07a3.326,3.326,0,0,1,.635-0.06h49.579a3.717,3.717,0,0,1,.95.13,3.9,3.9,0,0,1,.888.38,3.6,3.6,0,0,1,1.63,2.17,3.536,3.536,0,0,1,.116.9v6.56Zm-12.163,15.05,1.107-1.1,1.107,1.1h-2.214Zm-4.224,0,0.157-.15,0.634-.63,0.633-.64,1.795-1.79,0.845,0.84-1.795,1.8-0.579.57h-1.69Zm-4.121,0-1.424-1.42,2.217-2.21,2.218,2.21-1.424,1.42h-1.587Zm-2.848,0h-1.376l-0.579-.57-1.795-1.8-0.634-.63-0.633-.63-0.845-.84-0.634-.64-0.633-.63-2.218-2.21-0.633-.63-0.634-.64-1.795-1.79-0.634-.63-0.237-.24a0.875,0.875,0,0,0,.093-0.39v-0.4h0.807l0.182,0.19,0.634,0.63,1.795,1.79,0.633,0.63,0.634,0.63,2.217,2.22,0.634,0.63,0.634,0.63,0.844,0.85,0.634,0.63,0.633,0.63,1.8,1.79,0.633,0.64,0.634,0.63,0.156,0.15h-0.313Zm-6.125,0,1.108-1.1,1.107,1.1H583.89Zm-4.223,0,0.156-.15,0.634-.63,0.633-.64,1.8-1.79,0.844,0.84-1.8,1.8-0.579.57h-1.689Zm-7.5,5.06H562.83a1.139,1.139,0,0,1-1.025-.64,41.707,41.707,0,0,1-2.166-5.44c-0.062-.2-0.122-0.4-0.181-0.59-0.832-2.74-1.216-4.01.034-5.86a11.428,11.428,0,0,0,.717-0.94,6.387,6.387,0,0,0,.659-1.21,3.336,3.336,0,0,0,.185-0.63,2.024,2.024,0,0,0,.034-0.52v-0.61H573.91v0.61a2.373,2.373,0,0,0,.105.82,4.684,4.684,0,0,0,.375.89,8.308,8.308,0,0,0,.485.78c0.246,0.35.482,0.63,0.63,0.81a5.179,5.179,0,0,1,.553,1.03,3.59,3.59,0,0,1,.247,1.51c0,0.02,0,.05,0,0.07a6.389,6.389,0,0,1-.15,1.04c-0.033.16-.073,0.32-0.116,0.49-0.131.51-.3,1.07-0.5,1.72l-0.18.59c-0.064.21-.132,0.42-0.2,0.64-0.042.13-.086,0.26-0.131,0.38-0.064.19-.129,0.37-0.2,0.56-0.042.11-.085,0.22-0.128,0.34-0.115.3-.233,0.6-0.351,0.89-0.433,1.07-.864,2.01-1.159,2.63A1.138,1.138,0,0,1,572.167,1259.21Zm33.447-5.4-0.237-.23-1.795-1.8-0.633-.63-0.634-.63-0.845-.84-0.633-.64-0.634-.63-2.217-2.21-0.634-.63-0.633-.64-1.8-1.79-0.633-.63-0.634-.63-0.393-.4h1.69l0.182,0.19,0.633,0.63,1.795,1.79,0.634,0.63,0.633,0.63,2.218,2.22,0.634,0.63,0.633,0.63,0.845,0.85,0.633,0.63,0.634,0.63,1.795,1.79,0.167,0.17A2.067,2.067,0,0,1,605.614,1253.81ZM585,1241.88l2.217,2.21L585,1246.3l-2.218-2.21Zm3.484,3.47,0.634-.63,0.633-.63,1.8-1.79,0.844,0.84-1.795,1.79-0.634.64-0.633.63-2.218,2.21-0.844-.84Zm2.112,2.11,1.795,1.79-2.217,2.22-1.8-1.79Zm1.267-1.26,1.795-1.79,1.8,1.79-1.8,1.79Zm4.858,1.26,2.217,2.22-1.8,1.79-2.218-2.22Zm-8.237-4.63-1.344-1.35h2.688Zm-6.969,0-1.344-1.35h2.688Zm18.585,1.26,2.217-2.21,2.218,2.21-2.218,2.21Zm4.358-2.61h2.687l-1.343,1.35Zm-5.626,1.35-1.343-1.35h2.687Zm-38.377-4.07a0.354,0.354,0,0,1,.1-0.01h13.882a0.592,0.592,0,0,1,.513.3,0.188,0.188,0,0,1,.032.05,0.64,0.64,0,0,1,.053.25v1.63H559.962v-1.63a0.511,0.511,0,0,1,.011-0.11,0.678,0.678,0,0,1,.042-0.14,0.57,0.57,0,0,1,.205-0.24A0.625,0.625,0,0,1,560.453,1238.76Zm17.644,10,1.3-1.3,2.218,2.22-1.8,1.79-1.757-1.76A6.286,6.286,0,0,0,578.1,1248.76Zm-0.5-2.02a7.353,7.353,0,0,0-.636-1.11c-0.02-.03-0.042-0.06-0.065-0.09a7.483,7.483,0,0,1-.722-0.97l0.169-.16,1.795,1.79Zm-0.677,7.41c0.055-.17.108-0.33,0.159-0.5,0.061-.21.121-0.4,0.179-0.6,0.133-.43.259-0.85,0.371-1.25l0.931,0.93-1.423,1.42h-0.217Zm29.954-3.3-1.176-1.17,1.808-1.81Zm1.042-5.92-0.634.64-0.633.63-2.218,2.21-0.845-.84,2.218-2.22,0.633-.63,0.634-.63,1.571-1.57-0.454,2.14Zm-56.739-19.69,1.056-1.06a0.61,0.61,0,0,1,.845,0l4,4a5.4,5.4,0,0,0-1.731,2.07l-4.175-4.17A0.594,0.594,0,0,1,551.173,1225.24Zm10.192-.98,2.282-6.62h6.458l1.4,4.07,0.3,0.87,0.229,0.67,0.076,0.22,0.271,0.79v2.91H561.365v-2.91Zm0.6-9.42a1.015,1.015,0,0,1,1.009-1.01h7.807a1.012,1.012,0,0,1,.248.04,1,1,0,0,1,.728.72,0.962,0.962,0,0,1,.033.25,0.989,0.989,0,0,1-.365.77c0,0.01,0,.01-0.006.01-0.029.02-.06,0.05-0.092,0.07a0.978,0.978,0,0,1-.446.15,0.308,0.308,0,0,1-.1.01h-7.811a0.957,0.957,0,0,1-.55-0.17A1,1,0,0,1,561.966,1214.84Zm2.1-8.31c-0.236-4.33.665-6.24,1.588-6.57a1.038,1.038,0,0,1,.4-0.07c1.023,0,2.771,1.06,5.045,4.08a46.82,46.82,0,0,1,5,8.79c-0.967,2.76.772,5.03,2.165,6.11v2.22a0.881,0.881,0,0,0-.742-0.67,8.636,8.636,0,0,0-4.267.41,0.813,0.813,0,0,1-.14.05l-1.2-3.49a2.792,2.792,0,0,0,1.626-2.1,8.368,8.368,0,0,1,.851.08,0.9,0.9,0,0,0,.274-1.77,9.929,9.929,0,0,0-1.427-.1,2.82,2.82,0,0,0-2.459-1.46H564.8A39.019,39.019,0,0,1,564.062,1206.53Zm28.856,0.67a26.826,26.826,0,0,1,6.712.71c2,0.51,3.56,1.31,4.126,2.44h0c0.045,0.09.084,0.18,0.12,0.27,0.012,0.03.021,0.06,0.032,0.08,0.022,0.06.044,0.12,0.062,0.18a0.961,0.961,0,0,1,.029.1c0.015,0.05.03,0.1,0.042,0.15s0.014,0.07.021,0.11,0.019,0.09.026,0.14c0,0.03.009,0.07,0.013,0.11s0.01,0.09.013,0.13,0,0.07,0,.11,0,0.08,0,.13c0,0.03,0,.07,0,0.1s0,0.09-.009.13-0.007.06-.011,0.1-0.011.08-.018,0.12-0.011.07-.017,0.1-0.018.08-.027,0.12-0.015.06-.023,0.09l-0.036.12c-0.01.03-.018,0.06-0.028,0.09s-0.029.08-.045,0.12c-0.01.02-.02,0.05-0.031,0.08s-0.035.08-.053,0.12a0.465,0.465,0,0,0-.033.07c-0.021.04-.044,0.08-0.067,0.13-0.01.02-.018,0.03-0.028,0.05-0.033.06-.067,0.12-0.1,0.18h0a1.705,1.705,0,0,1-.105.16c-0.012.02-.025,0.04-0.038,0.06s-0.05.07-.076,0.1c0,0.01,0,.01-0.007.01h0c0-.03-0.008-0.07-0.013-0.1s-0.006-.06-0.01-0.08q-0.014-.105-0.033-0.21c0-.01,0-0.03-0.007-0.04-0.016-.08-0.035-0.17-0.055-0.25a0.663,0.663,0,0,0-.019-0.07c-0.016-.06-0.033-0.13-0.052-0.19-0.009-.03-0.019-0.06-0.029-0.09-0.018-.05-0.038-0.11-0.058-0.17l-0.035-.09c-0.023-.06-0.047-0.12-0.073-0.18a0.519,0.519,0,0,0-.034-0.08c-0.039-.09-0.08-0.18-0.124-0.27-0.057-.11-0.119-0.22-0.185-0.33a0.034,0.034,0,0,1-.012-0.02c-0.064-.1-0.133-0.2-0.206-0.3l-0.022-.03c-0.071-.09-0.147-0.18-0.225-0.27a0.139,0.139,0,0,1-.032-0.04c-0.078-.08-0.16-0.17-0.244-0.25a0.149,0.149,0,0,1-.039-0.04c-0.085-.08-0.173-0.15-0.264-0.23-0.015-.01-0.03-0.03-0.045-0.04-0.091-.07-0.185-0.15-0.282-0.22l-0.048-.03c-0.1-.07-0.2-0.14-0.3-0.2a0.19,0.19,0,0,0-.05-0.04c-0.105-.06-0.211-0.13-0.32-0.19a0.1,0.1,0,0,0-.049-0.02c-0.111-.07-0.224-0.13-0.339-0.19a0.084,0.084,0,0,1-.043-0.02c-0.119-.06-0.239-0.11-0.362-0.17-0.01,0-.021-0.01-0.032-0.01-0.118-.05-0.238-0.11-0.36-0.15a0.078,0.078,0,0,0-.041-0.02c-0.122-.05-0.246-0.1-0.371-0.14l-0.064-.03-0.362-.12-0.085-.03c-0.117-.03-0.235-0.07-0.353-0.1l-0.1-.03c-0.114-.04-0.229-0.07-0.345-0.1l-0.117-.03c-0.112-.03-0.225-0.05-0.337-0.08l-0.13-.03c-0.11-.03-0.219-0.05-0.329-0.07l-0.142-.03-0.319-.06-0.154-.03c-0.091-.02-0.181-0.03-0.271-0.05l-0.2-.03c-0.074-.01-0.148-0.03-0.221-0.04l-0.25-.03-0.184-.03a2.847,2.847,0,0,1-.288-0.04c-0.049,0-.1-0.01-0.148-0.01-0.108-.02-0.215-0.03-0.321-0.04-0.038,0-.076-0.01-0.113-0.01-0.122-.01-0.243-0.03-0.362-0.04H593.68c-1.1-.1-2.077-0.13-2.794-0.13h-0.528l-1.084.01H589.18a0.708,0.708,0,0,1-.142-0.01,32.206,32.206,0,0,0-5.893.44,20.768,20.768,0,0,0-2.216.53,0.057,0.057,0,0,1-.039.01,1.444,1.444,0,0,0-.193.07c-0.047.01-.093,0.03-0.139,0.04l-0.1.03a10.539,10.539,0,0,1,3.2-1.22,33.692,33.692,0,0,1,8.122-.64h0.032Zm16.971,8.22a3.149,3.149,0,0,1,1.6,2.18,5.993,5.993,0,0,1-1.311,3.95c-0.024-.02-0.048-0.03-0.072-0.05a26.717,26.717,0,0,1-3.3-2.59C607.945,1217.15,609.327,1215.58,609.889,1215.42Zm-4.9,4.25a29.675,29.675,0,0,0,4.1,3.31,6.305,6.305,0,0,1,1.037.79,1.379,1.379,0,0,1-.1.24c-0.485.97-2.14,1.82-3.1,2.22a35.61,35.61,0,0,1-3.451-5.9c-0.01-.02-0.021-0.05-0.03-0.07a0.037,0.037,0,0,0,.03-0.01C603.964,1220.05,604.541,1219.83,604.989,1219.67Zm-3.305-1.47v0.49c-0.248.08-.484,0.14-0.75,0.2v-0.02c0.055-.04.111-0.09,0.167-0.13,0.017-.02.035-0.03,0.053-0.05,0.04-.03.08-0.07,0.12-0.1,0.019-.02.038-0.03,0.057-0.05,0.045-.04.091-0.09,0.136-0.13l0.035-.03c0.056-.06.112-0.11,0.168-0.17A0.013,0.013,0,0,1,601.684,1218.2Zm1.83,8.97H592.259a40.065,40.065,0,0,0,3.787-6.6,12.69,12.69,0,0,0,2.753.31h0.054c0.1,0,.2-0.01.289-0.01,0.335-.01.63-0.03,0.9-0.05,0.341-.03.634-0.07,0.9-0.11,0.245-.04.464-0.09,0.672-0.14,0.025,0.05.051,0.11,0.078,0.17,0.224,0.47.531,1.1,0.9,1.81,0.27,0.52.572,1.09,0.9,1.66a26.21,26.21,0,0,0,1.918,2.96h-1.88Zm-15.968-5.67c-0.024.02-.048,0.03-0.072,0.05a6,6,0,0,1-1.311-3.95,3.149,3.149,0,0,1,1.6-2.18c0.562,0.16,1.944,1.73,3.087,3.49A26.641,26.641,0,0,1,587.546,1221.5Zm1.014,1.48a29.615,29.615,0,0,0,4.1-3.31c0.458,0.16,1.05.39,1.544,0.59a35.421,35.421,0,0,1-3.482,5.97c-0.962-.4-2.616-1.24-3.1-2.22a1.259,1.259,0,0,1-.1-0.24A6.242,6.242,0,0,1,588.56,1222.98Zm-10.921-8.93a3.408,3.408,0,0,1,.351-1.16c0.022-.04.049-0.09,0.075-0.13a2.482,2.482,0,0,1,.327-0.45,3.573,3.573,0,0,1,.512-0.46,4.135,4.135,0,0,1,.366-0.26c0.1-.06.2-0.12,0.3-0.18,0.216-.12.447-0.23,0.693-0.34a16.62,16.62,0,0,1,4.362-1.09,0.277,0.277,0,0,1,.09-0.01l0.2-.03a29.574,29.574,0,0,1,3.52-.2h0.053c0.254,0,.507,0,0.756.01h0.031l1.1-.01h0.2c4.528-.03,9.525.93,10.64,3.15,1.372,2.74-1.54,4.69-1.663,4.77a0.9,0.9,0,0,0-.409.75v0.67c-0.1,0-.206.01-0.316,0.01a9.1,9.1,0,0,1-3.009-.45,0.911,0.911,0,0,0-.689.07c-0.944-.41-2.211-0.86-2.392-0.92a0.864,0.864,0,0,0-.5-0.03c-0.332-.49-0.833-1.21-1.4-1.9-0.658-.81-2.406-2.95-3.927-2.02a4.928,4.928,0,0,0-2.518,3.49c-0.343,2.24,1.006,4.42,1.705,5.37a1.807,1.807,0,0,0-.076,2.11,6.166,6.166,0,0,0,2.548,2.36h-8.506v-8.76a0.9,0.9,0,0,0-.409-0.75,5.246,5.246,0,0,1-.9-0.77A3.6,3.6,0,0,1,577.639,1214.05Zm0.631,13.12h-4.09v-3.06a0.849,0.849,0,0,0-.049-0.29l-0.406-1.18-0.02-.06a1.161,1.161,0,0,1,.169-0.07,7,7,0,0,1,.9-0.26,7.2,7.2,0,0,1,2.5-.06,0.9,0.9,0,0,0,1-.68v5.66Zm-4.89,23.81-0.022-.01-2.239-1.3v-2.61a0.9,0.9,0,0,0-.448-0.78l-0.277-.16-0.8-.46-0.8-.46-0.833-.48a0.9,0.9,0,0,0-.9,0l-0.614.35-0.8.46-0.8.47-0.5.28a0.928,0.928,0,0,0-.4.51,0.813,0.813,0,0,0-.044.27v2.57l-0.917.53-0.816.47-0.545.31a1.085,1.085,0,0,0-.257.22,0.917,0.917,0,0,0-.19.56v3.13a0.886,0.886,0,0,0,.447.77l2.716,1.57a0.9,0.9,0,0,0,.9,0l2.156-1.25,0.081-.04,0.081,0.04,2.221,1.28a0.9,0.9,0,0,0,.9,0l2.221-1.28,0.5-.28a0.9,0.9,0,0,0,.431-0.61q0.008-.045.012-0.09c0-.02,0-0.05,0-0.08v-3.13A0.887,0.887,0,0,0,573.38,1250.98Zm-5.873-4.46,0.772,0.45,0.162,0.09,0.642,0.37,0.244,0.14v2.1h0l-0.512.3-1.071.61-0.21.12h0l-0.022-.01-1.071-.62-0.751-.43v-2.07l0.464-.26,0.8-.47,0.438-.25Zm-4.545,7.08v-1.37l0.109-.06,0.087-.05,0.211-.12,1.385-.8,0.027-.02,0.346,0.2L566.2,1252l0.4,0.23v2.1l-0.482.28-0.3.17-0.457.26-0.584.34-1.819-1.05v-0.73Zm6.42,1.33-0.986-.56v-2.1l0.145-.08,0.515-.3,1.071-.61,0.092-.06,1.817,1.05v2.1l-0.318.18-0.8.46-0.062.04-0.637.37-0.637-.37Z" transform="translate(-549.219 -1198.09)"/>
</svg>
