<svg xmlns="http://www.w3.org/2000/svg" width="67.812" height="62.91" viewBox="0 0 67.812 62.91">
  <defs>
    <style>
      .cls-1 {
        fill-rule: evenodd;
      }
    </style>
  </defs>
  <path class="cls-1" d="M357.321,1252.61l-2.914-5.92a6.258,6.258,0,0,0,.345-6.17l-7.14-14.49a0.144,0.144,0,0,1-.021-0.04l-0.421-.85a3.018,3.018,0,0,0-4.018-1.37l-0.714.35h0l-0.155.09a0.071,0.071,0,0,0-.038.02,0.881,0.881,0,0,0-.126.08c-0.007,0-.015.01-0.023,0.01a2.941,2.941,0,0,0-.79.77s-0.006-.01-0.009-0.01q-0.065-.105-0.138-0.21l-0.022-.03c-0.05-.07-0.1-0.13-0.157-0.2a0.044,0.044,0,0,1-.022-0.02c-0.056-.06-0.114-0.12-0.175-0.18-0.007-.01-0.013-0.01-0.019-0.02a2.214,2.214,0,0,0-.2-0.16,0.012,0.012,0,0,0-.013-0.01,2.2,2.2,0,0,0-.217-0.16h0c-0.075-.04-0.153-0.09-0.232-0.13h-0.009a2.253,2.253,0,0,0-.234-0.11c-0.007,0-.013-0.01-0.02-0.01a2.033,2.033,0,0,0-.235-0.08c-0.01,0-.019-0.01-0.028-0.01l-0.237-.06c-0.011,0-.023-0.01-0.034-0.01-0.079-.01-0.158-0.03-0.238-0.04h-0.037c-0.08-.01-0.16-0.01-0.241-0.02h-0.037c-0.081,0-.162.01-0.243,0.01h-0.037l-0.245.03a0.043,0.043,0,0,1-.033.01,2.162,2.162,0,0,0-.247.05,0.031,0.031,0,0,1-.027.01,2.284,2.284,0,0,0-.251.08c-0.006,0-.012.01-0.017,0.01a2.6,2.6,0,0,0-.256.11h0l-1.113.54-0.158.09a0.087,0.087,0,0,0-.044.02c-0.038.02-.075,0.05-0.111,0.07l-0.043.03c-0.041.03-.081,0.05-0.12,0.08-0.007.01-.014,0.01-0.021,0.02a1.946,1.946,0,0,0-.276.24s-0.006,0-.009.01l-0.123.12h0c-0.083.1-.16,0.19-0.23,0.29l-0.019-.03c-0.019-.03-0.041-0.06-0.062-0.09a1.313,1.313,0,0,0-.1-0.14l-0.073-.09c-0.034-.04-0.069-0.09-0.105-0.13a0.5,0.5,0,0,1-.064-0.07,3.068,3.068,0,0,0,.383-1.49v-1.09a3.124,3.124,0,0,0-3.125-3.11h-0.078a3.67,3.67,0,0,0-1.409.28v-1.15l3.607-3.2a3.6,3.6,0,0,0,.35-5.09,3.632,3.632,0,0,0-3.957-1.02v-7.55a3.38,3.38,0,0,0-3.385-3.37H309.278a3.38,3.38,0,0,0-3.385,3.37v13.05a4.61,4.61,0,0,0-1.123-.17,4.2,4.2,0,0,0-3.055,1.18,4.06,4.06,0,0,0-1.248,2.91l-0.064,10.52-3.6,7.04a7.712,7.712,0,0,0-.748,4.79l0.34,2.07-6.519,5.49a0.748,0.748,0,0,0-.274.53,0.757,0.757,0,0,0,.192.57l9.956,11.29a0.8,0.8,0,0,0,1.092.08l7.408-6.27a6.624,6.624,0,0,0,6.335-1.16l9.336-7.65,10.449,6.63a9.676,9.676,0,0,0,5.3,1.51l2.918,5.93a0.8,0.8,0,0,0,.448.39,0.732,0.732,0,0,0,.253.04,0.825,0.825,0,0,0,.344-0.08l13.332-6.5A0.786,0.786,0,0,0,357.321,1252.61Zm-13.675,5.81-2.8-5.68a0.78,0.78,0,0,0-.7-0.44H340.1a8.03,8.03,0,0,1-4.89-1.24l-10.019-6.36-1.386-.88-0.965-.61-1.226-.78-1.227-.77-1.081-.69-0.546-.35a2.538,2.538,0,0,1-.936-1.03,2.625,2.625,0,0,1-.218-0.6c-0.009-.04-0.014-0.09-0.022-0.13a2.567,2.567,0,0,1,.368-1.84,1.368,1.368,0,0,1,.106-0.15,1.93,1.93,0,0,1,.223-0.27,2.545,2.545,0,0,1,1.315-.73,2.268,2.268,0,0,1,.256-0.05,3.18,3.18,0,0,1,.617,0,2.783,2.783,0,0,1,1.107.39l0.615,0.39,6.094,3.86a0.806,0.806,0,0,0,.5.11,0.818,0.818,0,0,0,.442-0.19,0.784,0.784,0,0,0,.176-0.93l-0.078-.16-0.384-.76-0.666-1.34-0.3-.59-0.389-.78-0.388-.78-4.386-8.77-0.735-1.47-0.394-.79-0.608-1.22-0.217-.43-0.87-1.74a2.029,2.029,0,0,1-.167-0.5,2.047,2.047,0,0,1,1.109-2.25,2.511,2.511,0,0,1,.455-0.16,2.121,2.121,0,0,1,1.116.06h0a2.063,2.063,0,0,1,1.187,1.05l0.767,1.51,0.443,0.88,0.364,0.72,0.07,0.14,0.059,0.11,0.348,0.69,0.752,1.49,2.03,4.01,0.216,0.42c0,0.01.008,0.02,0.013,0.03l0.185,0.38,0.105,0.21,0.676,1.37,0.729,1.48,0.052,0.11,0.4,0.82,0.061,0.12,0.29,0.59,0.357,0.73,0.9,1.83,1.019-.49,0.384-.19-0.074-.15-0.752-1.53-0.371-.75-0.118-.24-0.239-.48-0.367-.75-1.5-3.04-0.2-.41-0.141-.29h0a1.434,1.434,0,0,1-.07-1.1,1.4,1.4,0,0,1,.414-0.61,0.179,0.179,0,0,1,.051-0.04c0.039-.03.079-0.06,0.121-0.09a0.7,0.7,0,0,1,.132-0.07c0-.01.007-0.01,0.011-0.01l0.992-.49,0.12-.05a0.082,0.082,0,0,1,.041-0.02,0.373,0.373,0,0,1,.093-0.04c0.008,0,.017-0.01.025-0.01a1.407,1.407,0,0,1,.787-0.05c0.052,0.02.1,0.03,0.155,0.05a1.414,1.414,0,0,1,.628.42,0.222,0.222,0,0,0,.043.05s0,0,0,.01a0.609,0.609,0,0,1,.071.1s0.008,0.01.012,0.01c0.026,0.05.05,0.09,0.071,0.13l0.357,0.72,0.688,1.4a0.043,0.043,0,0,0,.01.02l0.174,0.36,2.071,4.2,0.444,0.9,1.4-.69-0.094-.19-0.423-.86-2.17-4.4h0s0-.01,0-0.01a1.433,1.433,0,0,1,.535-1.84,0.7,0.7,0,0,1,.128-0.07l1.113-.54a1.442,1.442,0,0,1,1.928.65l0.071,0.14,0.961,1.95c0,0.01,0,.01,0,0.01a0.147,0.147,0,0,0,.02.04l1.042,2.12,0.592,1.19,0.7-.34,0.7-.34-0.685-1.39-0.948-1.92a0.042,0.042,0,0,1,0-.01,0.159,0.159,0,0,1-.007-0.02,1.426,1.426,0,0,1,.543-1.82,0.715,0.715,0,0,1,.126-0.07l0.714-.35a1.446,1.446,0,0,1,1.928.66l3.048,6.18,0.248,0.5h0l4.285,8.7a4.72,4.72,0,0,1-.471,4.95,0.778,0.778,0,0,0-.077.81l2.773,5.63Zm-36.191-56.95a1.826,1.826,0,0,1,1.823-1.82h17.835a1.826,1.826,0,0,1,1.823,1.82v1.17H307.455v-1.17Zm25.823,9.59a2.046,2.046,0,0,1-.206,2.9l-2.574,2.28v-5.48A2.072,2.072,0,0,1,333.278,1211.06Zm-25.823-6.87h21.481v16.53a3.621,3.621,0,0,0,0,4.28v0.73l-1.384-2.74a6.765,6.765,0,0,0,.931-2.88c0.018-.2.029-0.4,0.029-0.61,0-.15-0.007-0.29-0.016-0.44a6.635,6.635,0,0,0-.123-0.93,6.875,6.875,0,0,0-2.091-3.68,7.573,7.573,0,0,0-.612-0.5c-0.219-.16-0.447-0.3-0.683-0.44a6.881,6.881,0,0,0-9.767,8.58,7.393,7.393,0,0,0,.35.73,6.431,6.431,0,0,0,.422.66c0.067,0.09.136,0.19,0.207,0.28a6.914,6.914,0,0,0,4.909,2.59l4.343,8.69H322.64l-0.232-.14a4.173,4.173,0,0,0-3.157-.55,4.1,4.1,0,0,0-1.552.69h-4.62a12.158,12.158,0,0,0-4.09-6.02l0.023-10.38a4.226,4.226,0,0,0-1.557-3.29v-11.16Zm26.093,18.12v1.09a1.539,1.539,0,0,1-.164.69,3,3,0,0,0-1.873.07l-0.274.12-0.567.28c-0.06-.05-0.117-0.09-0.172-0.14a2.088,2.088,0,0,1,0-3.12,2.129,2.129,0,0,1,1.409-.54h0.078A1.561,1.561,0,0,1,333.548,1222.31Zm-20.111,14.29H316.4a4.109,4.109,0,0,0-.4,2.22,2.146,2.146,0,0,0-.014.24,2.191,2.191,0,0,0,.576,1.48,4.334,4.334,0,0,0,.968,1.12h-4.387A11.692,11.692,0,0,0,313.437,1236.6Zm13.313,1.04-1.651-1.04h1.129Zm-9.579-15.19a4.755,4.755,0,0,1-.392-0.7,5.539,5.539,0,0,1-.294-0.77,5.339,5.339,0,0,1,7.238-6.36,5.045,5.045,0,0,1,.738.39,4.557,4.557,0,0,1,.641.48,5.278,5.278,0,0,1,1.845,3.9c0,0.04,0,.08,0,0.11a5.266,5.266,0,0,1-.291,1.73l-0.189-.37-0.364-.72-0.01-.02a4.785,4.785,0,0,0,.043-0.62,4.5,4.5,0,0,0-1.651-3.48,4.443,4.443,0,0,0-1.452-.79,4.473,4.473,0,0,0-1.424-.23,4.519,4.519,0,0,0-4.526,4.5,4.426,4.426,0,0,0,.085.87,4.261,4.261,0,0,0,.246.82,4.792,4.792,0,0,0,.369.72,4.743,4.743,0,0,0,1.237,1.29,4.611,4.611,0,0,0,.71.4l0.52,1.04a5.32,5.32,0,0,1-2.264-1.24A5.13,5.13,0,0,1,317.171,1222.45Zm-3.582,29.74a5.073,5.073,0,0,1-5.291.71,4.944,4.944,0,0,1-1.748-1.28l-3.818-4.33-1.174,1.03,3.819,4.32a6.664,6.664,0,0,0,1.338,1.17l-6.3,5.32-8.924-10.11,6.249-5.26a0.777,0.777,0,0,0,.266-0.72l-0.411-2.51a6.123,6.123,0,0,1,.6-3.82l3.688-7.21a0.8,0.8,0,0,0,.085-0.35l0.066-10.7a2.5,2.5,0,0,1,.773-1.8,2.629,2.629,0,0,1,1.93-.74,2.814,2.814,0,0,1,1.16.28,2.928,2.928,0,0,1,.781.55,2.7,2.7,0,0,1,.776,1.9l-0.024,10.75a0.8,0.8,0,0,0,.313.63,10.665,10.665,0,0,1,3.7,5.02q0.133,0.39.237,0.78t0.174,0.78a10.106,10.106,0,0,1-.35,5.06c-0.088.26-.186,0.52-0.3,0.77-0.062.15-.128,0.29-0.2,0.43l0.7,0.34,0,0.01h0.02l0.685,0.33c0.054-.11.1-0.22,0.154-0.33h7.361l2.6,1.65Z" transform="translate(-289.594 -1198.09)"/>
</svg>
